<mxfile host="app.diagrams.net" modified="2021-09-03T07:43:57.498Z" agent="5.0 (Windows NT 10.0; Win64; x64) AppleWebKit/537.36 (KHTML, like Gecko) Chrome/92.0.4515.131 Safari/537.36" etag="dpmM3JmPavA6KbV73wz1" version="15.0.5" type="github" pages="3">
  <diagram id="DEbczpCwlbP_TFkBsGh2" name="Page-1">
    <mxGraphModel dx="1422" dy="761" grid="0" gridSize="10" guides="1" tooltips="1" connect="1" arrows="1" fold="1" page="1" pageScale="1" pageWidth="827" pageHeight="1169" math="0" shadow="0">
      <root>
        <mxCell id="0" />
        <mxCell id="1" parent="0" />
        <mxCell id="sG-IPePxW8UnqUO6yqKk-11" style="edgeStyle=orthogonalEdgeStyle;rounded=0;orthogonalLoop=1;jettySize=auto;html=1;exitX=1;exitY=0.25;exitDx=0;exitDy=0;entryX=0;entryY=0.25;entryDx=0;entryDy=0;" edge="1" parent="1" source="sG-IPePxW8UnqUO6yqKk-1" target="sG-IPePxW8UnqUO6yqKk-4">
          <mxGeometry relative="1" as="geometry" />
        </mxCell>
        <mxCell id="sG-IPePxW8UnqUO6yqKk-12" style="edgeStyle=orthogonalEdgeStyle;rounded=0;orthogonalLoop=1;jettySize=auto;html=1;exitX=1;exitY=0.5;exitDx=0;exitDy=0;" edge="1" parent="1" source="sG-IPePxW8UnqUO6yqKk-1" target="sG-IPePxW8UnqUO6yqKk-4">
          <mxGeometry relative="1" as="geometry" />
        </mxCell>
        <mxCell id="sG-IPePxW8UnqUO6yqKk-1" value="服务器" style="rounded=1;whiteSpace=wrap;html=1;" vertex="1" parent="1">
          <mxGeometry x="319" y="346" width="120" height="60" as="geometry" />
        </mxCell>
        <mxCell id="sG-IPePxW8UnqUO6yqKk-3" style="edgeStyle=orthogonalEdgeStyle;rounded=0;orthogonalLoop=1;jettySize=auto;html=1;exitX=1;exitY=0.5;exitDx=0;exitDy=0;entryX=0;entryY=0.5;entryDx=0;entryDy=0;" edge="1" parent="1" source="sG-IPePxW8UnqUO6yqKk-2" target="sG-IPePxW8UnqUO6yqKk-1">
          <mxGeometry relative="1" as="geometry" />
        </mxCell>
        <mxCell id="sG-IPePxW8UnqUO6yqKk-2" value="主播" style="rounded=1;whiteSpace=wrap;html=1;" vertex="1" parent="1">
          <mxGeometry x="46" y="346" width="120" height="60" as="geometry" />
        </mxCell>
        <mxCell id="sG-IPePxW8UnqUO6yqKk-16" style="edgeStyle=orthogonalEdgeStyle;rounded=0;orthogonalLoop=1;jettySize=auto;html=1;exitX=0.5;exitY=1;exitDx=0;exitDy=0;" edge="1" parent="1" source="sG-IPePxW8UnqUO6yqKk-4" target="sG-IPePxW8UnqUO6yqKk-15">
          <mxGeometry relative="1" as="geometry" />
        </mxCell>
        <mxCell id="sG-IPePxW8UnqUO6yqKk-4" value="模仿模型" style="rounded=1;whiteSpace=wrap;html=1;" vertex="1" parent="1">
          <mxGeometry x="567" y="346" width="120" height="60" as="geometry" />
        </mxCell>
        <mxCell id="sG-IPePxW8UnqUO6yqKk-5" value="2.语音文本" style="text;html=1;strokeColor=none;fillColor=none;align=center;verticalAlign=middle;whiteSpace=wrap;rounded=0;" vertex="1" parent="1">
          <mxGeometry x="465" y="329" width="74" height="20" as="geometry" />
        </mxCell>
        <mxCell id="sG-IPePxW8UnqUO6yqKk-9" style="edgeStyle=orthogonalEdgeStyle;rounded=0;orthogonalLoop=1;jettySize=auto;html=1;exitX=1;exitY=0.5;exitDx=0;exitDy=0;entryX=0.5;entryY=0;entryDx=0;entryDy=0;" edge="1" parent="1" source="sG-IPePxW8UnqUO6yqKk-8" target="sG-IPePxW8UnqUO6yqKk-4">
          <mxGeometry relative="1" as="geometry" />
        </mxCell>
        <mxCell id="sG-IPePxW8UnqUO6yqKk-8" value="直播间" style="rounded=1;whiteSpace=wrap;html=1;" vertex="1" parent="1">
          <mxGeometry x="322" y="219" width="120" height="60" as="geometry" />
        </mxCell>
        <mxCell id="sG-IPePxW8UnqUO6yqKk-10" value="3.特殊用户列表" style="text;html=1;strokeColor=none;fillColor=none;align=center;verticalAlign=middle;whiteSpace=wrap;rounded=0;" vertex="1" parent="1">
          <mxGeometry x="483" y="223" width="114" height="20" as="geometry" />
        </mxCell>
        <mxCell id="sG-IPePxW8UnqUO6yqKk-13" value="2.礼物等参数记录" style="text;html=1;strokeColor=none;fillColor=none;align=center;verticalAlign=middle;whiteSpace=wrap;rounded=0;" vertex="1" parent="1">
          <mxGeometry x="456" y="383" width="103" height="20" as="geometry" />
        </mxCell>
        <mxCell id="sG-IPePxW8UnqUO6yqKk-14" value="1.直播流" style="text;html=1;strokeColor=none;fillColor=none;align=center;verticalAlign=middle;whiteSpace=wrap;rounded=0;" vertex="1" parent="1">
          <mxGeometry x="215" y="352" width="68" height="20" as="geometry" />
        </mxCell>
        <mxCell id="sG-IPePxW8UnqUO6yqKk-17" style="edgeStyle=orthogonalEdgeStyle;rounded=0;orthogonalLoop=1;jettySize=auto;html=1;exitX=1;exitY=0.5;exitDx=0;exitDy=0;entryX=0.5;entryY=0;entryDx=0;entryDy=0;" edge="1" parent="1" source="sG-IPePxW8UnqUO6yqKk-15" target="sG-IPePxW8UnqUO6yqKk-8">
          <mxGeometry relative="1" as="geometry">
            <Array as="points">
              <mxPoint x="746" y="550" />
              <mxPoint x="746" y="199" />
              <mxPoint x="382" y="199" />
            </Array>
          </mxGeometry>
        </mxCell>
        <mxCell id="sG-IPePxW8UnqUO6yqKk-15" value="合成直播流" style="rounded=1;whiteSpace=wrap;html=1;" vertex="1" parent="1">
          <mxGeometry x="567" y="520" width="120" height="60" as="geometry" />
        </mxCell>
        <mxCell id="sG-IPePxW8UnqUO6yqKk-18" value="5.传输特殊用户直播间" style="text;html=1;strokeColor=none;fillColor=none;align=center;verticalAlign=middle;whiteSpace=wrap;rounded=0;" vertex="1" parent="1">
          <mxGeometry x="756" y="363" width="66" height="20" as="geometry" />
        </mxCell>
        <mxCell id="sG-IPePxW8UnqUO6yqKk-20" value="&lt;span style=&quot;color: rgb(0 , 0 , 0) ; font-family: &amp;#34;helvetica&amp;#34; ; font-size: 12px ; font-style: normal ; font-weight: 400 ; letter-spacing: normal ; text-align: center ; text-indent: 0px ; text-transform: none ; word-spacing: 0px ; background-color: rgb(248 , 249 , 250) ; display: inline ; float: none&quot;&gt;4.更改语音内容&lt;/span&gt;" style="text;whiteSpace=wrap;html=1;" vertex="1" parent="1">
          <mxGeometry x="536" y="448" width="92" height="28" as="geometry" />
        </mxCell>
      </root>
    </mxGraphModel>
  </diagram>
  <diagram id="e3MP239aG9Op4RtuGo48" name="Page-2">
    <mxGraphModel dx="1422" dy="761" grid="0" gridSize="10" guides="1" tooltips="1" connect="1" arrows="1" fold="1" page="1" pageScale="1" pageWidth="827" pageHeight="1169" math="0" shadow="0">
      <root>
        <mxCell id="FMewWziFAZGIuLrYmSMS-0" />
        <mxCell id="FMewWziFAZGIuLrYmSMS-1" parent="FMewWziFAZGIuLrYmSMS-0" />
        <mxCell id="FMewWziFAZGIuLrYmSMS-10" style="edgeStyle=orthogonalEdgeStyle;rounded=0;orthogonalLoop=1;jettySize=auto;html=1;exitX=0.5;exitY=0;exitDx=0;exitDy=0;entryX=0.5;entryY=1;entryDx=0;entryDy=0;" edge="1" parent="FMewWziFAZGIuLrYmSMS-1" source="FMewWziFAZGIuLrYmSMS-2" target="FMewWziFAZGIuLrYmSMS-8">
          <mxGeometry relative="1" as="geometry" />
        </mxCell>
        <mxCell id="FMewWziFAZGIuLrYmSMS-2" value="主播语音" style="rounded=1;whiteSpace=wrap;html=1;" vertex="1" parent="FMewWziFAZGIuLrYmSMS-1">
          <mxGeometry x="198" y="526" width="120" height="60" as="geometry" />
        </mxCell>
        <mxCell id="FMewWziFAZGIuLrYmSMS-3" value="情感" style="rounded=1;whiteSpace=wrap;html=1;" vertex="1" parent="FMewWziFAZGIuLrYmSMS-1">
          <mxGeometry x="376" y="399" width="120" height="60" as="geometry" />
        </mxCell>
        <mxCell id="FMewWziFAZGIuLrYmSMS-4" value="方言" style="rounded=1;whiteSpace=wrap;html=1;" vertex="1" parent="FMewWziFAZGIuLrYmSMS-1">
          <mxGeometry x="376" y="533" width="120" height="60" as="geometry" />
        </mxCell>
        <mxCell id="FMewWziFAZGIuLrYmSMS-5" value="音色" style="rounded=1;whiteSpace=wrap;html=1;" vertex="1" parent="FMewWziFAZGIuLrYmSMS-1">
          <mxGeometry x="376" y="655" width="120" height="60" as="geometry" />
        </mxCell>
        <mxCell id="FMewWziFAZGIuLrYmSMS-6" value="" style="shape=curlyBracket;whiteSpace=wrap;html=1;rounded=1;" vertex="1" parent="FMewWziFAZGIuLrYmSMS-1">
          <mxGeometry x="333" y="406.5" width="20" height="299" as="geometry" />
        </mxCell>
        <mxCell id="FMewWziFAZGIuLrYmSMS-9" style="edgeStyle=orthogonalEdgeStyle;rounded=0;orthogonalLoop=1;jettySize=auto;html=1;exitX=0.5;exitY=1;exitDx=0;exitDy=0;" edge="1" parent="FMewWziFAZGIuLrYmSMS-1" source="FMewWziFAZGIuLrYmSMS-7" target="FMewWziFAZGIuLrYmSMS-8">
          <mxGeometry relative="1" as="geometry" />
        </mxCell>
        <mxCell id="FMewWziFAZGIuLrYmSMS-7" value="2.公屏问题" style="rounded=1;whiteSpace=wrap;html=1;" vertex="1" parent="FMewWziFAZGIuLrYmSMS-1">
          <mxGeometry x="78" y="168" width="120" height="60" as="geometry" />
        </mxCell>
        <mxCell id="FMewWziFAZGIuLrYmSMS-12" style="edgeStyle=orthogonalEdgeStyle;rounded=0;orthogonalLoop=1;jettySize=auto;html=1;exitX=1;exitY=0.5;exitDx=0;exitDy=0;" edge="1" parent="FMewWziFAZGIuLrYmSMS-1" source="FMewWziFAZGIuLrYmSMS-8" target="FMewWziFAZGIuLrYmSMS-11">
          <mxGeometry relative="1" as="geometry" />
        </mxCell>
        <mxCell id="FMewWziFAZGIuLrYmSMS-8" value="服务器&lt;br&gt;3.判断是否有答案" style="rounded=1;whiteSpace=wrap;html=1;" vertex="1" parent="FMewWziFAZGIuLrYmSMS-1">
          <mxGeometry x="78" y="302" width="120" height="60" as="geometry" />
        </mxCell>
        <mxCell id="FMewWziFAZGIuLrYmSMS-16" style="edgeStyle=orthogonalEdgeStyle;rounded=0;orthogonalLoop=1;jettySize=auto;html=1;exitX=1;exitY=0.5;exitDx=0;exitDy=0;entryX=1;entryY=0.5;entryDx=0;entryDy=0;" edge="1" parent="FMewWziFAZGIuLrYmSMS-1" source="FMewWziFAZGIuLrYmSMS-11" target="FMewWziFAZGIuLrYmSMS-14">
          <mxGeometry relative="1" as="geometry" />
        </mxCell>
        <mxCell id="FMewWziFAZGIuLrYmSMS-11" value="模拟直播流" style="rounded=1;whiteSpace=wrap;html=1;" vertex="1" parent="FMewWziFAZGIuLrYmSMS-1">
          <mxGeometry x="297" y="302" width="120" height="60" as="geometry" />
        </mxCell>
        <mxCell id="FMewWziFAZGIuLrYmSMS-15" style="edgeStyle=orthogonalEdgeStyle;rounded=0;orthogonalLoop=1;jettySize=auto;html=1;exitX=0.5;exitY=1;exitDx=0;exitDy=0;" edge="1" parent="FMewWziFAZGIuLrYmSMS-1" source="FMewWziFAZGIuLrYmSMS-14" target="FMewWziFAZGIuLrYmSMS-7">
          <mxGeometry relative="1" as="geometry" />
        </mxCell>
        <mxCell id="FMewWziFAZGIuLrYmSMS-14" value="主播" style="rounded=1;whiteSpace=wrap;html=1;" vertex="1" parent="FMewWziFAZGIuLrYmSMS-1">
          <mxGeometry x="78" y="34" width="120" height="60" as="geometry" />
        </mxCell>
        <mxCell id="FMewWziFAZGIuLrYmSMS-17" value="1.记录及训练模型" style="text;html=1;strokeColor=none;fillColor=none;align=center;verticalAlign=middle;whiteSpace=wrap;rounded=0;" vertex="1" parent="FMewWziFAZGIuLrYmSMS-1">
          <mxGeometry x="82" y="455" width="124" height="20" as="geometry" />
        </mxCell>
        <mxCell id="FMewWziFAZGIuLrYmSMS-18" value="4.生成" style="text;html=1;strokeColor=none;fillColor=none;align=center;verticalAlign=middle;whiteSpace=wrap;rounded=0;" vertex="1" parent="FMewWziFAZGIuLrYmSMS-1">
          <mxGeometry x="188" y="310" width="124" height="20" as="geometry" />
        </mxCell>
        <mxCell id="FMewWziFAZGIuLrYmSMS-19" value="5.传输" style="text;html=1;strokeColor=none;fillColor=none;align=center;verticalAlign=middle;whiteSpace=wrap;rounded=0;" vertex="1" parent="FMewWziFAZGIuLrYmSMS-1">
          <mxGeometry x="453" y="168" width="40" height="20" as="geometry" />
        </mxCell>
      </root>
    </mxGraphModel>
  </diagram>
  <diagram id="16_D78XJv0q9rS3m-6tP" name="Page-3">
    <mxGraphModel dx="1422" dy="761" grid="1" gridSize="10" guides="1" tooltips="1" connect="1" arrows="1" fold="1" page="1" pageScale="1" pageWidth="827" pageHeight="1169" math="0" shadow="0">
      <root>
        <mxCell id="k1tdJTmXrtY0g32ui9VB-0" />
        <mxCell id="k1tdJTmXrtY0g32ui9VB-1" parent="k1tdJTmXrtY0g32ui9VB-0" />
      </root>
    </mxGraphModel>
  </diagram>
</mxfile>
